<svg width="77" height="74" xmlns="http://www.w3.org/2000/svg" fill="none">
 <defs>
  <linearGradient y2="1" x2="0.5" y1="0" x1="0.5" id="paint1_linear_282_2366">
   <stop stop-color="#33E0E7"/>
   <stop stop-color="#0B8CAC" offset="1"/>
  </linearGradient>
  <linearGradient y2="1" x2="0.50001" y1="0" x1="0.50001" id="paint2_linear_282_2366">
   <stop stop-color="#33E0E7"/>
   <stop stop-color="#0B8CAC" offset="1"/>
  </linearGradient>
 </defs>
 <g>
  <title>Layer 1</title>
  <g id="svg_4">
   <path id="svg_2" fill="url(#paint1_linear_282_2366)" d="m44.6275,15c-3.0595,0 -6.0892,0.59054 -8.916,1.7377c-2.8266,1.1473 -5.3949,2.82878 -7.5584,4.94858c-2.1635,2.11993 -3.8796,4.63633 -5.0504,7.40603c-1.1709,2.7698 -1.7736,5.7384 -1.7736,8.7362c0,2.9979 0.6027,5.9664 1.7736,8.7361c1.1708,2.7697 2.8869,5.2862 5.0504,7.4062c2.1635,2.1197 4.7318,3.8012 7.5584,4.9485c2.8268,1.1472 5.8565,1.7377 8.916,1.7377l0,-11.4143c-1.5298,0 -3.0446,-0.2952 -4.4579,-0.8689c-1.4134,-0.5735 -2.6976,-1.4143 -3.7793,-2.4741c-1.0817,-1.06 -1.9397,-2.3183 -2.5251,-3.7032c-0.5856,-1.3848 -0.8868,-2.869 -0.8868,-4.368c0,-1.499 0.3012,-2.9833 0.8868,-4.3681c0.5854,-1.3849 1.4434,-2.6431 2.5251,-3.703c1.0817,-1.06 2.3659,-1.9007 3.7793,-2.4743c1.4133,-0.5736 2.9281,-0.8689 4.4579,-0.8689l0,-11.41421z"/>
   <path id="svg_3" fill="url(#paint2_linear_282_2366)" d="m44.6285,45.43831c4.2891,0 7.766,-3.4069 7.766,-7.6096c0,-4.2026 -3.4769,-7.6095 -7.766,-7.6095c-4.2892,0 -7.7662,3.4069 -7.7662,7.6095c0,4.2027 3.477,7.6096 7.7662,7.6096z"/>
  </g>
 </g>
</svg>